<svg width="26" height="26" viewBox="0 0 26 26" fill="none" xmlns="http://www.w3.org/2000/svg">
<path fill-rule="evenodd" clip-rule="evenodd" d="M26 13C26 20.1825 20.1825 26 13 26C5.8175 26 0 20.1825 0 13C0 5.8175 5.8175 0 13 0C20.1825 0 26 5.8175 26 13ZM10.335 24.0663V21.645C7.2475 22.3372 6.58125 20.2605 6.58125 20.2605C6.084 18.915 5.3495 18.5705 5.3495 18.5705C4.33875 17.8588 5.42262 17.8587 5.42262 17.8587C6.54387 17.9351 7.12888 19.0515 7.12888 19.0515C8.12175 20.8228 9.72887 20.3206 10.3626 20.0135C10.4552 19.2627 10.7494 18.7444 11.0614 18.4551C8.59138 18.1854 6.00763 17.186 6.00763 12.7189C6.00763 11.4498 6.448 10.4114 7.14838 9.59888C7.03788 9.31125 6.65112 8.1185 7.25888 6.52763C7.25888 6.52763 8.1965 6.2205 10.3139 7.72037C11.2185 7.46709 12.1532 7.33754 13.0926 7.33525C14.0303 7.33525 14.9939 7.47012 15.8714 7.72037C17.9839 6.2205 18.9264 6.52763 18.9264 6.52763C19.5341 8.12338 19.1474 9.32263 19.0369 9.59888C19.7551 10.4065 20.1776 11.4514 20.1776 12.7189C20.1776 17.1876 17.5776 18.1626 15.1076 18.4551C15.5139 18.8208 15.9218 19.513 15.9218 20.6164V24.0126C18.3493 23.3705 20.4962 21.9432 22.0276 19.9532C23.5591 17.9632 24.389 15.5224 24.388 13.0114C24.388 6.72263 19.3018 1.63637 13.013 1.63637C6.72425 1.63637 1.638 6.72263 1.638 13.0114C1.638 18.3739 5.35925 22.8751 10.348 24.0776L10.335 24.0663Z" fill="black"/>
</svg>
